<svg xmlns="http://www.w3.org/2000/svg" width="100" height="100" viewBox="0 0 100 100"><path fill="#c7ede6" d="M87.215,56.71C88.35,54.555,89,52.105,89,49.5c0-6.621-4.159-12.257-10.001-14.478 C78.999,35.015,79,35.008,79,35c0-11.598-9.402-21-21-21c-9.784,0-17.981,6.701-20.313,15.757C36.211,29.272,34.638,29,33,29 c-7.692,0-14.023,5.793-14.89,13.252C12.906,43.353,9,47.969,9,53.5C9,59.851,14.149,65,20.5,65c0.177,0,0.352-0.012,0.526-0.022 C21.022,65.153,21,65.324,21,65.5C21,76.822,30.178,86,41.5,86c6.437,0,12.175-2.972,15.934-7.614C59.612,80.611,62.64,82,66,82 c4.65,0,8.674-2.65,10.666-6.518C77.718,75.817,78.837,76,80,76c6.075,0,11-4.925,11-11C91,61.689,89.53,58.727,87.215,56.71z"/><path fill="#fdfcef" d="M35.875,61.5c0,0,3.64,0,6.125,0s4.5-2.015,4.5-4.5c0-2.333-1.782-4.229-4.055-4.455 C42.467,52.364,42.5,52.187,42.5,52c0-2.485-2.015-4.5-4.5-4.5c-1.438,0-2.703,0.686-3.527,1.736 C34.333,46.6,32.171,44.5,29.5,44.5c-2.761,0-5,2.239-5,5c0,0.446,0.077,0.87,0.187,1.282C24.045,50.005,23.086,49.5,22,49.5 c-1.781,0-3.234,1.335-3.455,3.055C18.364,52.533,18.187,52.5,18,52.5c-2.485,0-4.5,2.015-4.5,4.5s2.015,4.5,4.5,4.5s9.5,0,9.5,0 h5.375V62h3V61.5z"/><path fill="#472b29" d="M29.5,44c-3.033,0-5.5,2.467-5.5,5.5c0,0.016,0,0.031,0,0.047C23.398,49.192,22.71,49,22,49 c-1.831,0-3.411,1.261-3.858,3.005C18.095,52.002,18.048,52,18,52c-2.757,0-5,2.243-5,5s2.243,5,5,5h14.875 c0.276,0,0.5-0.224,0.5-0.5s-0.224-0.5-0.5-0.5H18c-2.206,0-4-1.794-4-4s1.794-4,4-4c0.117,0,0.23,0.017,0.343,0.032l0.141,0.019 c0.021,0.003,0.041,0.004,0.062,0.004c0.246,0,0.462-0.185,0.495-0.437C19.232,51.125,20.504,50,22,50 c0.885,0,1.723,0.401,2.301,1.1c0.098,0.118,0.241,0.182,0.386,0.182c0.078,0,0.156-0.018,0.228-0.056 c0.209-0.107,0.314-0.346,0.254-0.573C25.054,50.218,25,49.852,25,49.5c0-2.481,2.019-4.5,4.5-4.5 c2.381,0,4.347,1.872,4.474,4.263c0.011,0.208,0.15,0.387,0.349,0.45c0.05,0.016,0.101,0.024,0.152,0.024 c0.15,0,0.296-0.069,0.392-0.192C35.638,48.563,36.779,48,38,48c2.206,0,4,1.794,4,4c0,0.117-0.017,0.23-0.032,0.343l-0.019,0.141 c-0.016,0.134,0.022,0.268,0.106,0.373c0.084,0.105,0.207,0.172,0.34,0.185C44.451,53.247,46,54.949,46,57c0,2.206-1.794,4-4,4 h-6.125c-0.276,0-0.5,0.224-0.5,0.5s0.224,0.5,0.5,0.5H42c2.757,0,5-2.243,5-5c0-2.397-1.689-4.413-4.003-4.877 C42.999,52.082,43,52.041,43,52c0-2.757-2.243-5-5-5c-1.176,0-2.293,0.416-3.183,1.164C34.219,45.76,32.055,44,29.5,44L29.5,44z"/><path fill="#472b29" d="M28,51c-1.403,0-2.609,0.999-2.913,2.341C24.72,53.119,24.301,53,23.875,53 c-1.202,0-2.198,0.897-2.353,2.068C21.319,55.022,21.126,55,20.937,55c-1.529,0-2.811,1.2-2.918,2.732 C18.01,57.87,18.114,57.99,18.251,58c0.006,0,0.012,0,0.018,0c0.13,0,0.24-0.101,0.249-0.232c0.089-1.271,1.151-2.268,2.419-2.268 c0.229,0,0.47,0.042,0.738,0.127c0.022,0.007,0.045,0.01,0.067,0.01c0.055,0,0.11-0.02,0.156-0.054 C21.962,55.537,22,55.455,22,55.375c0-1.034,0.841-1.875,1.875-1.875c0.447,0,0.885,0.168,1.231,0.473 c0.047,0.041,0.106,0.063,0.165,0.063c0.032,0,0.063-0.006,0.093-0.019c0.088-0.035,0.148-0.117,0.155-0.212 C25.623,52.512,26.712,51.5,28,51.5c0.208,0,0.425,0.034,0.682,0.107c0.023,0.007,0.047,0.01,0.07,0.01 c0.109,0,0.207-0.073,0.239-0.182c0.038-0.133-0.039-0.271-0.172-0.309C28.517,51.04,28.256,51,28,51L28,51z"/><path fill="#472b29" d="M41.883,52.5c-1.326,0-2.508,0.897-2.874,2.182c-0.038,0.133,0.039,0.271,0.172,0.309 C39.205,54.997,39.228,55,39.25,55c0.109,0,0.209-0.072,0.24-0.182C39.795,53.748,40.779,53,41.883,53 c0.117,0,0.23,0.014,0.342,0.029c0.012,0.002,0.023,0.003,0.035,0.003c0.121,0,0.229-0.092,0.246-0.217 c0.019-0.137-0.077-0.263-0.214-0.281C42.158,52.516,42.022,52.5,41.883,52.5L41.883,52.5z"/><path fill="#fff" d="M32.405,79H22.5c-0.276,0-0.5-0.224-0.5-0.5s0.224-0.5,0.5-0.5h9.905c0.276,0,0.5,0.224,0.5,0.5 S32.682,79,32.405,79z"/><path fill="#fff" d="M35.5,79h-1c-0.276,0-0.5-0.224-0.5-0.5s0.224-0.5,0.5-0.5h1c0.276,0,0.5,0.224,0.5,0.5 S35.777,79,35.5,79z"/><path fill="#fff" d="M40.491,81H31.5c-0.276,0-0.5-0.224-0.5-0.5s0.224-0.5,0.5-0.5h8.991c0.276,0,0.5,0.224,0.5,0.5 S40.767,81,40.491,81z"/><path fill="#fff" d="M29.5,81h-1c-0.276,0-0.5-0.224-0.5-0.5s0.224-0.5,0.5-0.5h1c0.276,0,0.5,0.224,0.5,0.5 S29.777,81,29.5,81z"/><path fill="#fff" d="M26.5,81h-2c-0.276,0-0.5-0.224-0.5-0.5s0.224-0.5,0.5-0.5h2c0.276,0,0.5,0.224,0.5,0.5 S26.777,81,26.5,81z"/><path fill="#fff" d="M32.5,83h-2c-0.276,0-0.5-0.224-0.5-0.5s0.224-0.5,0.5-0.5h2c0.276,0,0.5,0.224,0.5,0.5 S32.776,83,32.5,83z"/><path fill="#fff" d="M35.5,74c-0.177,0-0.823,0-1,0c-0.276,0-0.5,0.224-0.5,0.5c0,0.276,0.224,0.5,0.5,0.5 c0.177,0,0.823,0,1,0c0.276,0,0.5-0.224,0.5-0.5C36,74.224,35.776,74,35.5,74z"/><path fill="#fff" d="M35.5,76c-0.177,0-4.823,0-5,0c-0.276,0-0.5,0.224-0.5,0.5c0,0.276,0.224,0.5,0.5,0.5 c0.177,0,4.823,0,5,0c0.276,0,0.5-0.224,0.5-0.5C36,76.224,35.776,76,35.5,76z"/><path fill="#fff" d="M40.5,78c-0.177,0-2.823,0-3,0c-0.276,0-0.5,0.224-0.5,0.5c0,0.276,0.224,0.5,0.5,0.5 c0.177,0,2.823,0,3,0c0.276,0,0.5-0.224,0.5-0.5C41,78.224,40.776,78,40.5,78z"/><path fill="#fff" d="M69.5,20h-10c-0.276,0-0.5-0.224-0.5-0.5s0.224-0.5,0.5-0.5h10c0.276,0,0.5,0.224,0.5,0.5 S69.776,20,69.5,20z"/><path fill="#fff" d="M73.5,20h-2c-0.276,0-0.5-0.224-0.5-0.5s0.224-0.5,0.5-0.5h2c0.276,0,0.5,0.224,0.5,0.5 S73.776,20,73.5,20z"/><path fill="#fff" d="M78.5,22h-10c-0.276,0-0.5-0.224-0.5-0.5s0.224-0.5,0.5-0.5h10c0.276,0,0.5,0.224,0.5,0.5 S78.777,22,78.5,22z"/><path fill="#fff" d="M66.5,22h-1c-0.276,0-0.5-0.224-0.5-0.5s0.224-0.5,0.5-0.5h1c0.276,0,0.5,0.224,0.5,0.5 S66.776,22,66.5,22z"/><path fill="#fff" d="M63.375,22H61.5c-0.276,0-0.5-0.224-0.5-0.5s0.224-0.5,0.5-0.5h1.875c0.276,0,0.5,0.224,0.5,0.5 S63.651,22,63.375,22z"/><path fill="#fff" d="M72.5,18h-5c-0.276,0-0.5-0.224-0.5-0.5s0.224-0.5,0.5-0.5h5c0.276,0,0.5,0.224,0.5,0.5 S72.777,18,72.5,18z"/><path fill="#fff" d="M69.5,24h-2c-0.276,0-0.5-0.224-0.5-0.5s0.224-0.5,0.5-0.5h2c0.276,0,0.5,0.224,0.5,0.5 S69.776,24,69.5,24z"/><path fill="#ef9922" d="M32.665,72.121l29.443-12.738L44.031,41.306L31.293,70.749 C30.918,71.616,31.797,72.496,32.665,72.121z"/><polygon fill="#fbcd59" points="32.073 71.339 52.789 51.927 47.883 47.021"/><ellipse cx="53.416" cy="49.984" fill="#472b29" rx="4.5" ry="12.792" transform="rotate(-45.001 53.416 49.985)"/><path fill="#ee3e54" d="M49.677,46.712c-0.231-0.231-0.345-0.571-0.272-0.914c0.012-0.054,1.121-5.485-1.156-8.751 c-0.921-1.322-2.258-2.101-4.081-2.369c-0.547-0.08-0.925-0.59-0.844-1.135c0.081-0.546,0.589-0.924,1.135-0.844 c2.368,0.348,4.197,1.427,5.436,3.211c2.77,3.982,1.521,10.046,1.466,10.302c-0.115,0.54-0.645,0.884-1.185,0.77 C49.98,46.941,49.809,46.844,49.677,46.712z"/><path fill="#472b29" d="M50.386,47.254c-0.087,0-0.175-0.009-0.262-0.028c-0.236-0.05-0.453-0.167-0.624-0.338 c-0.301-0.301-0.428-0.728-0.339-1.143c0.011-0.053,1.101-5.374-1.117-8.555c-0.882-1.266-2.162-2.007-3.912-2.264 c-0.33-0.048-0.622-0.222-0.821-0.491c-0.2-0.268-0.282-0.598-0.233-0.928c0.048-0.33,0.223-0.621,0.49-0.821 c0.268-0.199,0.6-0.282,0.928-0.234c2.44,0.358,4.326,1.473,5.605,3.315c2.834,4.075,1.561,10.237,1.505,10.497 c-0.068,0.326-0.261,0.606-0.541,0.788C50.859,47.186,50.625,47.254,50.386,47.254z M44.312,32.939 c-0.16,0-0.315,0.051-0.445,0.148c-0.161,0.12-0.266,0.294-0.295,0.493c-0.029,0.198,0.021,0.396,0.141,0.556 c0.119,0.161,0.294,0.266,0.492,0.294c1.895,0.279,3.285,1.087,4.25,2.473c2.357,3.382,1.207,8.891,1.195,8.946 c-0.053,0.248,0.023,0.504,0.204,0.685c0.103,0.103,0.231,0.173,0.374,0.202c0.198,0.042,0.396,0.004,0.564-0.104 c0.168-0.109,0.283-0.277,0.325-0.472c0.054-0.252,1.284-6.208-1.427-10.107c-1.198-1.724-2.97-2.769-5.268-3.106 C44.386,32.942,44.349,32.939,44.312,32.939z"/><path fill="#00a5a5" d="M56.513,51.313c-0.127-0.127-0.221-0.29-0.266-0.477c-0.127-0.538,0.207-1.075,0.744-1.202 c0.491-0.115,12.084-2.794,17.48,0.88c1.538,1.046,2.451,2.498,2.713,4.311c0.079,0.547-0.3,1.054-0.847,1.133 c-0.546,0.079-1.054-0.3-1.133-0.846c-0.181-1.253-0.791-2.218-1.858-2.943c-4.67-3.18-15.785-0.613-15.897-0.587 C57.1,51.662,56.749,51.549,56.513,51.313z"/><path fill="#472b29" d="M76.191,56.217c-0.268,0-0.526-0.086-0.745-0.249c-0.268-0.2-0.44-0.492-0.488-0.822 c-0.172-1.18-0.744-2.087-1.752-2.772c-4.57-3.114-15.587-0.576-15.699-0.551c-0.423,0.101-0.863-0.025-1.171-0.334l0,0 c-0.164-0.164-0.279-0.371-0.332-0.597c-0.158-0.67,0.259-1.344,0.93-1.503c0.496-0.117,12.203-2.811,17.678,0.917 c1.599,1.087,2.547,2.595,2.82,4.481c0.048,0.331-0.035,0.66-0.235,0.927c-0.2,0.268-0.492,0.441-0.822,0.489 C76.313,56.212,76.252,56.217,76.191,56.217z M66.142,50.333c2.74,0,5.521,0.384,7.346,1.627c1.13,0.768,1.772,1.787,1.965,3.114 c0.029,0.198,0.133,0.374,0.294,0.493c0.16,0.12,0.359,0.169,0.556,0.141c0.199-0.029,0.374-0.133,0.494-0.293 c0.12-0.161,0.17-0.358,0.142-0.556c-0.253-1.742-1.13-3.135-2.607-4.14c-5.293-3.605-16.794-0.958-17.281-0.843 c-0.403,0.095-0.653,0.5-0.559,0.902c0.032,0.136,0.101,0.26,0.199,0.358v0c0.186,0.186,0.446,0.261,0.704,0.2 C57.463,51.32,61.749,50.333,66.142,50.333z"/><g><path fill="#472b29" d="M32.018,71.622c-0.047,0-0.094-0.013-0.136-0.04c-0.116-0.075-0.149-0.23-0.074-0.346l7.079-10.94 c0.076-0.116,0.229-0.149,0.346-0.074c0.116,0.075,0.149,0.23,0.074,0.346l-7.079,10.94C32.18,71.582,32.1,71.622,32.018,71.622z"/></g><g><path fill="#472b29" d="M40.521,58.48c-0.047,0-0.094-0.013-0.136-0.04c-0.116-0.075-0.149-0.23-0.074-0.346l2.99-4.621 c0.076-0.116,0.229-0.149,0.346-0.074c0.116,0.075,0.149,0.23,0.074,0.346l-2.99,4.621C40.684,58.439,40.604,58.48,40.521,58.48z"/></g><g><path fill="#472b29" d="M44.938,51.656c-0.047,0-0.094-0.013-0.136-0.04c-0.116-0.075-0.149-0.23-0.074-0.346l2.15-3.324 c0.075-0.116,0.229-0.149,0.346-0.074c0.116,0.075,0.149,0.23,0.074,0.346l-2.15,3.324C45.1,51.615,45.02,51.656,44.938,51.656z"/></g><g><path fill="#472b29" d="M44.365,43.054L60.36,59.049l-28.114,12.16l-0.034-0.063L44.365,43.054 M44.031,41.306 L31.293,70.749c-0.314,0.726,0.251,1.46,0.952,1.46c0.137,0,0.278-0.028,0.42-0.089l29.443-12.738L44.031,41.306L44.031,41.306z"/></g><g><path fill="#472b29" d="M32.857,70.871c-0.066,0-0.133-0.027-0.183-0.079c-0.094-0.101-0.089-0.259,0.012-0.353 L43.861,59.96c0.1-0.094,0.258-0.09,0.354,0.011c0.094,0.101,0.089,0.259-0.012,0.353L33.028,70.803 C32.98,70.848,32.919,70.871,32.857,70.871z"/></g><g><path fill="#472b29" d="M46.084,58.469c-0.066,0-0.133-0.027-0.183-0.079c-0.094-0.101-0.089-0.259,0.012-0.353l5.202-4.878 c0.1-0.094,0.258-0.09,0.354,0.011c0.094,0.101,0.089,0.259-0.012,0.353l-5.202,4.878C46.207,58.446,46.146,58.469,46.084,58.469z"/></g><g><circle cx="56.5" cy="36.5" r="1.5" fill="#83ccb7"/><path fill="#472b29" d="M56.5,38.25c-0.965,0-1.75-0.785-1.75-1.75s0.785-1.75,1.75-1.75s1.75,0.785,1.75,1.75 S57.465,38.25,56.5,38.25z M56.5,35.25c-0.689,0-1.25,0.561-1.25,1.25s0.561,1.25,1.25,1.25s1.25-0.561,1.25-1.25 S57.189,35.25,56.5,35.25z"/></g><g><circle cx="61" cy="28" r="2" fill="#ee3e54"/><path fill="#472b29" d="M61,30.25c-1.24,0-2.25-1.009-2.25-2.25s1.01-2.25,2.25-2.25s2.25,1.009,2.25,2.25 S62.24,30.25,61,30.25z M61,26.25c-0.965,0-1.75,0.785-1.75,1.75s0.785,1.75,1.75,1.75s1.75-0.785,1.75-1.75S61.965,26.25,61,26.25 z"/></g><g><circle cx="71.5" cy="43.5" r="1.5" fill="#ee3e54"/><path fill="#472b29" d="M71.5,45.25c-0.965,0-1.75-0.785-1.75-1.75s0.785-1.75,1.75-1.75s1.75,0.785,1.75,1.75 S72.465,45.25,71.5,45.25z M71.5,42.25c-0.689,0-1.25,0.561-1.25,1.25s0.561,1.25,1.25,1.25s1.25-0.561,1.25-1.25 S72.189,42.25,71.5,42.25z"/></g><g><circle cx="79" cy="46" r="2" fill="#88ae45"/><path fill="#472b29" d="M79,48.25c-1.24,0-2.25-1.009-2.25-2.25s1.01-2.25,2.25-2.25s2.25,1.009,2.25,2.25 S80.24,48.25,79,48.25z M79,44.25c-0.965,0-1.75,0.785-1.75,1.75s0.785,1.75,1.75,1.75s1.75-0.785,1.75-1.75S79.965,44.25,79,44.25 z"/></g><g><circle cx="68.5" cy="55.5" r="2" fill="#ffce00"/><path fill="#472b29" d="M68.5,57.75c-1.24,0-2.25-1.009-2.25-2.25s1.01-2.25,2.25-2.25s2.25,1.009,2.25,2.25 S69.74,57.75,68.5,57.75z M68.5,53.75c-0.965,0-1.75,0.785-1.75,1.75s0.785,1.75,1.75,1.75s1.75-0.785,1.75-1.75 S69.465,53.75,68.5,53.75z"/></g><g><circle cx="82" cy="61" r="2" fill="#78a0cf"/><path fill="#472b29" d="M82,63.25c-1.24,0-2.25-1.009-2.25-2.25s1.01-2.25,2.25-2.25s2.25,1.009,2.25,2.25 S83.24,63.25,82,63.25z M82,59.25c-0.965,0-1.75,0.785-1.75,1.75s0.785,1.75,1.75,1.75s1.75-0.785,1.75-1.75S82.965,59.25,82,59.25 z"/></g><g><circle cx="52" cy="25" r="2" fill="#78a0cf"/><path fill="#472b29" d="M52,27.25c-1.24,0-2.25-1.009-2.25-2.25s1.01-2.25,2.25-2.25s2.25,1.009,2.25,2.25 S53.24,27.25,52,27.25z M52,23.25c-0.965,0-1.75,0.785-1.75,1.75s0.785,1.75,1.75,1.75s1.75-0.785,1.75-1.75S52.965,23.25,52,23.25 z"/></g><g><circle cx="30" cy="38" r="2.5" fill="#ffce00"/><path fill="#472b29" d="M30,40.75c-1.517,0-2.75-1.234-2.75-2.75s1.233-2.75,2.75-2.75s2.75,1.234,2.75,2.75 S31.517,40.75,30,40.75z M30,35.75c-1.24,0-2.25,1.009-2.25,2.25s1.01,2.25,2.25,2.25s2.25-1.009,2.25-2.25S31.24,35.75,30,35.75z"/></g><g><path fill="#ffce00" d="M56.565,44.069c-0.192-0.192-0.305-0.461-0.292-0.754c0.026-0.552,0.494-0.978,1.046-0.952 c5.15,0.242,6.941-0.669,7.536-1.476c0.424-0.574,0.43-1.408,0.02-2.549c-0.655-1.82-0.268-3.036,0.171-3.737 c0.702-1.119,1.961-1.623,2.906-1.721c0.256-0.027,0.541-0.037,0.842-0.046c0.833-0.027,1.695-0.053,2.106-0.525 c0.342-0.393,0.461-1.181,0.345-2.277c-0.191-1.795,0.487-2.88,1.089-3.474c1.788-1.765,4.971-1.438,5.328-1.395 c0.548,0.065,0.939,0.564,0.873,1.112c-0.066,0.548-0.563,0.938-1.11,0.874l0,0c-0.709-0.083-2.753-0.092-3.689,0.836 c-0.425,0.421-0.589,1.021-0.503,1.836c0.183,1.712-0.087,2.956-0.825,3.803c-0.984,1.129-2.467,1.176-3.551,1.21 c-0.249,0.007-0.485,0.014-0.697,0.036c-0.454,0.048-1.098,0.285-1.42,0.795c-0.296,0.471-0.29,1.143,0.017,1.996 c0.645,1.792,0.547,3.277-0.293,4.414c-1.306,1.768-4.328,2.516-9.239,2.285C56.967,44.349,56.735,44.239,56.565,44.069z"/><path fill="#472b29" d="M69.761,33.026c-0.125,0-0.232-0.093-0.248-0.22c-0.017-0.137,0.081-0.262,0.218-0.278 c0.495-0.061,0.807-0.182,0.981-0.382c0.291-0.334,0.392-1.076,0.284-2.086c-0.014-0.137,0.085-0.26,0.223-0.275 c0.143-0.013,0.261,0.085,0.275,0.222c0.125,1.184-0.011,2.014-0.405,2.467c-0.342,0.393-0.904,0.502-1.298,0.55 C69.78,33.025,69.771,33.026,69.761,33.026z"/><path fill="#472b29" d="M58.87,44.651c-0.527,0-1.079-0.014-1.656-0.041c-0.312-0.014-0.604-0.144-0.825-0.365 c-0.248-0.248-0.382-0.591-0.365-0.942c0.017-0.334,0.161-0.641,0.407-0.866c0.248-0.225,0.57-0.341,0.9-0.324 c5.3,0.249,6.865-0.754,7.323-1.375c0.371-0.502,0.366-1.26-0.014-2.316c-0.689-1.914-0.274-3.207,0.194-3.954 c0.749-1.195,2.088-1.732,3.091-1.837c0.14-0.014,0.261,0.085,0.275,0.223c0.014,0.137-0.086,0.26-0.223,0.274 c-0.887,0.093-2.066,0.563-2.72,1.605c-0.41,0.653-0.769,1.794-0.147,3.519c0.44,1.225,0.423,2.135-0.055,2.782 c-0.919,1.245-3.522,1.777-7.749,1.577c-0.417-0.024-0.765,0.301-0.784,0.714c-0.01,0.21,0.069,0.417,0.219,0.565 c0.133,0.133,0.309,0.21,0.495,0.219c4.824,0.228,7.773-0.488,9.025-2.184c0.082-0.111,0.239-0.134,0.35-0.053 c0.111,0.082,0.135,0.239,0.053,0.35C65.463,43.852,62.905,44.651,58.87,44.651z"/><path fill="#472b29" d="M67.168,40.364c-0.005,0-0.011,0-0.017,0c-0.138-0.009-0.242-0.128-0.232-0.266 c0.046-0.701-0.087-1.492-0.396-2.352c-0.335-0.929-0.333-1.674,0.006-2.214c0.369-0.586,1.096-0.857,1.605-0.911 c0.211-0.022,0.443-0.029,0.689-0.036c1.063-0.033,2.483-0.078,3.396-1.125c0.689-0.791,0.939-1.973,0.765-3.612 c-0.094-0.895,0.094-1.562,0.576-2.04c1.213-1.204,3.868-0.91,3.895-0.907c0.403,0.047,0.782-0.245,0.832-0.655 c0.024-0.2-0.031-0.396-0.155-0.554c-0.123-0.157-0.3-0.257-0.498-0.28c-0.346-0.042-3.418-0.359-5.124,1.325 c-0.39,0.384-0.675,0.848-0.849,1.379c-0.042,0.131-0.18,0.204-0.315,0.16c-0.131-0.043-0.202-0.184-0.159-0.315 c0.198-0.607,0.525-1.139,0.972-1.579c1.872-1.847,5.165-1.51,5.535-1.466c0.33,0.039,0.626,0.205,0.832,0.468 c0.206,0.263,0.298,0.591,0.258,0.923c-0.081,0.683-0.702,1.172-1.387,1.092c-0.63-0.074-2.621-0.091-3.484,0.765 c-0.367,0.364-0.508,0.897-0.43,1.632c0.19,1.785-0.1,3.092-0.886,3.993c-1.057,1.212-2.603,1.26-3.731,1.296 c-0.26,0.008-0.48,0.014-0.68,0.035c-0.43,0.045-0.978,0.273-1.233,0.68c-0.253,0.403-0.239,1.001,0.041,1.778 c0.332,0.925,0.476,1.784,0.424,2.554C67.408,40.262,67.299,40.364,67.168,40.364z"/></g><g><path fill="#88ae45" d="M36.764,43.895c-0.043-0.043-0.082-0.09-0.118-0.143c-0.312-0.456-0.196-1.078,0.259-1.39 c3.426-2.348,3.382-3.345,3.366-3.45c-0.015-0.094-0.153-0.422-1.324-0.778c-1.067-0.325-2.313-1.094-2.609-2.279 c-0.116-0.464-0.169-1.385,0.778-2.332c0.214-0.214,0.439-0.416,0.657-0.609c0.294-0.262,0.787-0.701,0.816-0.874l0,0 c-0.001-0.001-0.052-0.376-1.32-1.221c-1.226-0.817-1.508-1.823-1.529-2.522c-0.071-2.391,2.803-4.634,3.131-4.882 c0.44-0.334,1.066-0.245,1.4,0.194c0.333,0.439,0.247,1.067-0.193,1.4c-0.777,0.591-2.371,2.157-2.338,3.229 c0.007,0.215,0.08,0.544,0.639,0.916c1.463,0.975,2.143,1.824,2.206,2.752c0.078,1.114-0.75,1.851-1.482,2.501 c-0.189,0.168-0.385,0.343-0.572,0.529c-0.139,0.139-0.279,0.326-0.252,0.433c0.051,0.211,0.517,0.627,1.251,0.85 c0.61,0.185,2.467,0.752,2.718,2.387c0.239,1.554-1.099,3.272-4.212,5.405C37.632,44.289,37.098,44.229,36.764,43.895z"/><path fill="#472b29" d="M38.589,32.29c-0.113,0-0.215-0.077-0.243-0.19c-0.011-0.028-0.167-0.373-1.216-1.072 c-1.314-0.876-1.617-1.964-1.64-2.723c-0.004-0.138,0.104-0.253,0.242-0.257c0.003,0,0.006,0,0.008,0 c0.135,0,0.246,0.107,0.25,0.243c0.019,0.641,0.28,1.563,1.417,2.321c1.193,0.796,1.395,1.228,1.426,1.377 c0.028,0.135-0.058,0.268-0.192,0.296C38.623,32.288,38.605,32.29,38.589,32.29z"/><path fill="#472b29" d="M37.471,44.438c-0.322,0-0.643-0.124-0.884-0.366c-0.054-0.053-0.103-0.113-0.147-0.178 c-0.39-0.568-0.245-1.348,0.323-1.738c3.286-2.251,3.262-3.191,3.261-3.209l0,0c-0.003,0-0.122-0.262-1.149-0.574 c-1.133-0.345-2.457-1.171-2.778-2.457c-0.129-0.515-0.191-1.534,0.844-2.569c0.218-0.218,0.446-0.423,0.669-0.619 c0.103-0.092,0.261-0.081,0.353,0.022c0.091,0.104,0.081,0.261-0.022,0.353c-0.215,0.19-0.436,0.387-0.646,0.598 c-0.86,0.861-0.815,1.682-0.713,2.095c0.271,1.084,1.438,1.795,2.44,2.1c0.937,0.285,1.44,0.615,1.497,0.979 c0.044,0.279-0.077,1.369-3.472,3.695c-0.341,0.234-0.428,0.702-0.194,1.043c0.027,0.039,0.057,0.075,0.089,0.107 c0.255,0.255,0.656,0.292,0.954,0.088c1.708-1.17,2.853-2.195,3.501-3.133c0.08-0.113,0.233-0.142,0.349-0.063 c0.113,0.079,0.142,0.234,0.063,0.348c-0.685,0.988-1.871,2.055-3.63,3.26C37.963,44.365,37.716,44.438,37.471,44.438z"/><path fill="#472b29" d="M42.247,38.857c-0.122,0-0.229-0.088-0.247-0.212c-0.228-1.481-1.971-2.012-2.544-2.186 c-0.72-0.219-1.33-0.661-1.421-1.03c-0.047-0.186,0.06-0.412,0.318-0.669c0.19-0.19,0.39-0.368,0.583-0.539 c0.722-0.641,1.468-1.304,1.398-2.297c-0.059-0.844-0.704-1.634-2.096-2.561c-0.491-0.327-0.736-0.692-0.75-1.116 c-0.039-1.264,1.792-2.947,2.437-3.436c0.16-0.121,0.263-0.297,0.29-0.496c0.027-0.198-0.023-0.395-0.145-0.554 c-0.249-0.33-0.722-0.395-1.049-0.146c-0.146,0.11-1.445,1.11-2.293,2.43c-0.073,0.117-0.229,0.149-0.345,0.075 c-0.116-0.075-0.15-0.229-0.075-0.345c0.875-1.364,2.162-2.371,2.411-2.559c0.546-0.417,1.332-0.306,1.749,0.242 c0.201,0.266,0.287,0.594,0.242,0.925c-0.046,0.331-0.218,0.624-0.483,0.825c-0.919,0.698-2.267,2.142-2.239,3.022 c0.003,0.102,0.012,0.372,0.527,0.716c1.533,1.021,2.247,1.929,2.316,2.943c0.087,1.237-0.828,2.051-1.564,2.705 c-0.186,0.165-0.379,0.336-0.562,0.519c-0.123,0.123-0.177,0.217-0.184,0.243c0.033,0.06,0.408,0.42,1.078,0.624 c0.647,0.197,2.617,0.797,2.893,2.589c0.021,0.136-0.072,0.264-0.209,0.285C42.272,38.856,42.26,38.857,42.247,38.857z"/></g><g><path fill="#ee3e54" d="M62.785,66.215c-0.459-1.004-0.609-2.465-0.446-4.369c0.047-0.551,0.531-0.959,1.081-0.912 c0.55,0.047,0.958,0.53,0.911,1.081c-0.23,2.69,0.303,3.647,0.616,3.78c0.327,0.138,1.271-0.18,2.529-1.627 c1.659-1.911,3.056-1.94,3.935-1.628c1.362,0.481,2.017,1.975,2.048,2.882c0.006,0.166-0.011,0.438-0.036,0.774 c-0.176,2.351,0.111,2.873,0.296,2.978c0.005,0.003,0.524,0.266,2.323-1.028c1.942-1.396,3.597-1.764,4.921-1.092 c2.206,1.12,2.294,4.608,2.296,5.002c0.004,0.552-0.44,1.001-0.991,1.006c-0.552,0.004-1.002-0.438-1.008-0.99 c-0.01-0.863-0.316-2.788-1.204-3.236c-0.587-0.297-1.598,0.034-2.846,0.933c-1.921,1.382-3.383,1.757-4.469,1.149 c-1.609-0.902-1.424-3.388-1.313-4.872c0.018-0.242,0.036-0.438,0.032-0.558c-0.01-0.289-0.313-0.921-0.718-1.065 c-0.402-0.143-1.059,0.251-1.757,1.054c-1.72,1.978-3.431,2.744-4.818,2.157C63.562,67.381,63.101,66.905,62.785,66.215z"/><path fill="#472b29" d="M72.741,71.17c-0.042,0-0.084-0.01-0.122-0.032c-1.749-0.981-1.556-3.565-1.439-5.108l0.009-0.127 c0.014-0.172,0.024-0.312,0.021-0.404c-0.007-0.214-0.267-0.737-0.551-0.837c-0.233-0.084-0.793,0.186-1.485,0.983 c-1.797,2.067-3.608,2.855-5.104,2.223c-0.662-0.28-1.171-0.801-1.513-1.548c-0.477-1.043-0.634-2.555-0.468-4.494 c0.028-0.333,0.185-0.635,0.439-0.85c0.256-0.215,0.579-0.319,0.912-0.29c0.687,0.059,1.197,0.665,1.139,1.352 c-0.228,2.67,0.31,3.463,0.466,3.529c0.168,0.074,1.025-0.161,2.242-1.561c0.09-0.105,0.248-0.114,0.353-0.025 c0.104,0.091,0.115,0.249,0.024,0.353c-1.267,1.456-2.321,1.9-2.814,1.693c-0.495-0.21-0.994-1.392-0.769-4.032 c0.035-0.412-0.271-0.776-0.684-0.811c-0.189-0.014-0.393,0.044-0.547,0.174c-0.153,0.129-0.247,0.31-0.264,0.51 c-0.158,1.852-0.016,3.28,0.425,4.244c0.288,0.63,0.709,1.066,1.253,1.296c1.277,0.542,2.888-0.201,4.531-2.091 c0.792-0.91,1.512-1.308,2.03-1.126c0.511,0.181,0.869,0.897,0.883,1.292c0.003,0.104-0.008,0.263-0.022,0.458l-0.01,0.126 c-0.106,1.426-0.285,3.81,1.186,4.635c0.121,0.068,0.163,0.22,0.096,0.34C72.913,71.125,72.828,71.17,72.741,71.17z"/><path fill="#472b29" d="M82.262,73.313c-0.684,0-1.243-0.553-1.252-1.237c-0.01-0.869-0.333-2.645-1.066-3.016 c-0.496-0.249-1.438,0.085-2.587,0.913c-1.095,0.787-2.03,1.249-2.861,1.412c-0.133,0.027-0.267-0.062-0.293-0.197 c-0.026-0.135,0.062-0.267,0.197-0.294c0.748-0.147,1.645-0.594,2.665-1.327c1.346-0.97,2.423-1.299,3.104-0.954 c1.069,0.54,1.334,2.731,1.342,3.456c0.005,0.411,0.342,0.743,0.751,0.743c0.002,0,0.004,0,0.006,0 c0.412-0.004,0.746-0.342,0.743-0.754c-0.002-0.378-0.078-3.725-2.16-4.781c-0.813-0.414-1.78-0.396-2.874,0.049 c-0.131,0.052-0.275-0.01-0.326-0.137c-0.052-0.128,0.009-0.274,0.137-0.326c1.235-0.503,2.342-0.514,3.29-0.032 c2.346,1.19,2.432,4.814,2.434,5.224c0.005,0.687-0.551,1.251-1.239,1.257C82.268,73.313,82.265,73.313,82.262,73.313z"/><path fill="#472b29" d="M73.871,69.449c-0.138,0-0.221-0.028-0.265-0.05c-0.284-0.161-0.624-0.662-0.433-3.22 c0.021-0.276,0.041-0.581,0.035-0.746c-0.027-0.837-0.63-2.213-1.881-2.655c-0.725-0.257-1.488-0.147-2.273,0.332 c-0.113,0.072-0.271,0.035-0.343-0.083c-0.072-0.118-0.035-0.272,0.083-0.344c1.143-0.698,2.098-0.59,2.7-0.376 c1.473,0.521,2.181,2.132,2.214,3.109c0.007,0.189-0.014,0.497-0.037,0.801c-0.181,2.419,0.146,2.723,0.171,2.742 c0.001,0,0.006,0,0.017,0c0.102,0,0.663-0.025,2.037-1.013c0.109-0.08,0.268-0.056,0.349,0.057 c0.08,0.112,0.055,0.268-0.058,0.349C74.911,69.269,74.219,69.449,73.871,69.449z"/></g><g><path fill="#fdfcef" d="M60.5,80.5c0,0,1.567,0,3.5,0s3.5-1.567,3.5-3.5c0-1.781-1.335-3.234-3.055-3.455 C64.473,73.366,64.5,73.187,64.5,73c0-1.933-1.567-3.5-3.5-3.5c-1.032,0-1.95,0.455-2.59,1.165 c-0.384-1.808-1.987-3.165-3.91-3.165c-2.209,0-4,1.791-4,4c0,0.191,0.03,0.374,0.056,0.558C50.128,71.714,49.592,71.5,49,71.5 c-1.228,0-2.245,0.887-2.455,2.055C46.366,73.527,46.187,73.5,46,73.5c-1.933,0-3.5,1.567-3.5,3.5s1.567,3.5,3.5,3.5s7.5,0,7.5,0 V81h7V80.5z"/><path fill="#472b29" d="M62.25,76C62.112,76,62,75.888,62,75.75c0-1.223,0.995-2.218,2.218-2.218 c0.034,0.009,0.737-0.001,1.244,0.136c0.133,0.036,0.212,0.173,0.176,0.306c-0.036,0.134-0.173,0.213-0.306,0.176 c-0.444-0.12-1.1-0.12-1.113-0.118c-0.948,0-1.719,0.771-1.719,1.718C62.5,75.888,62.388,76,62.25,76z"/><circle cx="55.5" cy="80.5" r=".5" fill="#472b29"/><path fill="#472b29" d="M64,81h-3.5c-0.276,0-0.5-0.224-0.5-0.5s0.224-0.5,0.5-0.5H64c1.654,0,3-1.346,3-3 c0-1.496-1.125-2.768-2.618-2.959c-0.134-0.018-0.255-0.088-0.336-0.196s-0.115-0.244-0.094-0.377C63.975,73.314,64,73.16,64,73 c0-1.654-1.346-3-3-3c-0.85,0-1.638,0.355-2.219,1c-0.125,0.139-0.321,0.198-0.5,0.148c-0.182-0.049-0.321-0.195-0.36-0.379 C57.58,69.165,56.141,68,54.5,68c-1.93,0-3.5,1.57-3.5,3.5c0,0.143,0.021,0.28,0.041,0.418c0.029,0.203-0.063,0.438-0.242,0.54 c-0.179,0.102-0.396,0.118-0.556-0.01C49.878,72.155,49.449,72,49,72c-0.966,0-1.792,0.691-1.963,1.644 c-0.048,0.267-0.296,0.446-0.569,0.405C46.314,74.025,46.16,74,46,74c-1.654,0-3,1.346-3,3s1.346,3,3,3h7.5 c0.276,0,0.5,0.224,0.5,0.5S53.776,81,53.5,81H46c-2.206,0-4-1.794-4-4s1.794-4,4-4c0.059,0,0.116,0.002,0.174,0.006 C46.588,71.82,47.711,71,49,71c0.349,0,0.689,0.061,1.011,0.18C50.176,68.847,52.126,67,54.5,67c1.831,0,3.466,1.127,4.153,2.774 C59.333,69.276,60.155,69,61,69c2.206,0,4,1.794,4,4c0,0.048-0.001,0.095-0.004,0.142C66.739,73.59,68,75.169,68,77 C68,79.206,66.206,81,64,81z"/><path fill="#472b29" d="M58.5,80c-0.159,0-0.841,0-1,0c-0.276,0-0.5,0.224-0.5,0.5c0,0.276,0.224,0.5,0.5,0.5 c0.159,0,0.841,0,1,0c0.276,0,0.5-0.224,0.5-0.5C59,80.224,58.776,80,58.5,80z"/></g></svg>