<svg xmlns="http://www.w3.org/2000/svg"  viewBox="0 0 48 48" width="100px" height="100px"><path fill="#5ec08f" d="M16,11.516c0,3.064-2.436,5.5-5.5,5.5S5,14.58,5,11.516s2.436-5.5,5.5-5.5S16,8.452,16,11.516z"/><path fill="#bbffd6" d="M15.921,10.652c-1.179,0-2.357-0.471-3.221-1.336c-0.864-0.864-1.336-2.043-1.336-3.221 c-0.55-0.079-1.021-0.079-1.571,0c0,1.571,0.629,3.143,1.807,4.321s2.75,1.807,4.321,1.807C16,11.752,16,11.202,15.921,10.652z M9.4,12.616c-1.179-1.179-2.75-1.807-4.321-1.807C5,11.359,5,11.83,5.079,12.38c1.179,0,2.279,0.471,3.221,1.414 c0.943,0.943,1.336,2.043,1.414,3.221c0.55,0.079,1.021,0.079,1.571,0C11.207,15.366,10.579,13.795,9.4,12.616z"/><path fill="#e0dddc" d="M44,15.5C44,22.375,38.375,28,31.5,28S19,22.375,19,15.5S24.625,3,31.5,3S44,8.625,44,15.5z"/><path fill="#bfbfbf" d="M21.937,12.763l0.395-1.186l4.921,1.641l-0.395,1.186L21.937,12.763z"/><path fill="#bfbfbf" d="M30.875,5.5h1.25v5h-1.25V5.5z"/><path fill="#bfbfbf" d="M25.011,23.169l3.189-4.784l1.04,0.693l-3.189,4.784L25.011,23.169z"/><path fill="#bfbfbf" d="M33.76,19.079l1.04-0.693l3.189,4.784l-1.04,0.693L33.76,19.079z"/><path fill="#bfbfbf" d="M33.86,13.846l6.819-2.27l0.395,1.186l-6.819,2.27L33.86,13.846z"/><path fill="#546e7a" d="M26.5,13.625l5-3.75l5,3.75l-1.875,5.625h-6.25L26.5,13.625z M35.25,3.563 C34.063,3.188,32.813,3,31.5,3s-2.563,0.188-3.75,0.563l-1,1.813L31.5,6.75l4.375-1.25L35.25,3.563z M42.75,16.75L44,15.5 c0-3.125-1.125-5.938-3-8.125l-1.375,0.188v5.063L42.75,16.75z M36.625,22.25l-2.688,4.25l1.438,0.875 c2.813-0.938,5.188-2.813,6.688-5.25l-0.5-1.813L36.625,22.25z M23.438,12.625l-0.063-5.063L22,7.375c-1.875,2.188-3,5-3,8.125 l1.25,1.25L23.438,12.625z M21.438,20.375l-0.5,1.813c1.563,2.438,3.875,4.313,6.688,5.25l1.375-1l-2.563-4.125L21.438,20.375z"/><path fill="#d6d1d0" d="M4.886,27.124l0.806-1.809l22.865,10.186l-0.806,1.809L4.886,27.124z M7.402,23.91l0.806-1.809	l21.021,9.287l-0.806,1.809L7.402,23.91z M26.042,38.716l-0.806,1.809l-21.057-9.38l0.806-1.809L26.042,38.716z"/><rect width="17.961" height="1.98" x="5.72" y="29.59" fill="#d6d1d0" transform="rotate(-65.99 14.7 30.579)"/><rect width="17.961" height="1.98" x="1.72" y="28.59" fill="#d6d1d0" transform="rotate(-65.99 10.7 29.579)"/><rect width="17.961" height="1.98" x="9.337" y="31.201" fill="#d6d1d0" transform="rotate(-65.99 18.317 32.19)"/><polygon fill="#d6d1d0" points="26.587,25.966 19.185,42.408 17.376,41.603 24.685,25.196"/><path fill="#c93d18" d="M37.801,39.774l-0.806,1.809c-5.297-2.359-6.808-5.742-8.342-8.903	c-1.57-3.254-3.082-6.637-8.629-9.65l0.935-1.751c6.1,3.337,7.884,7.15,9.49,10.498C32.018,35.03,33.279,37.76,37.801,39.774z"/><path fill="#c93d18" d="M37.801,39.774l-0.806,1.809c-4.651-2.072-7.523-1.184-10.769-0.153	c-3.562,1.045-7.684,2.305-14.151-0.034l0.676-1.866c5.95,2.109,9.512,1.064,12.945-0.039	C29.072,38.517,32.598,37.379,37.801,39.774z"/><path fill="#ff754c" d="M5.751,31.612c-0.466-1.214-0.902-3.189-0.003-5.033c0.806-1.809,2.645-3.157,5.086-3.772	c2.758-0.629,5.909-0.232,8.88,1.092c3.488,1.554,6.2,4.155,7.31,7.049c0.466,1.214,0.902,3.189,0.003,5.033	c-0.806,1.809-2.645,3.157-5.086,3.772c-2.757,0.629-5.909,0.232-8.88-1.092C9.609,37.201,6.861,34.506,5.751,31.612 M2.95,32.686	c1.361,3.548,4.546,6.825,8.845,8.817c7.363,3.28,15.413,1.37,17.888-4.185c1.036-2.325,0.923-4.853-0.008-7.28	c-1.361-3.548-4.546-6.825-8.845-8.817c-7.363-3.28-15.413-1.37-17.888,4.185C1.964,27.602,2.019,30.259,2.95,32.686z"/><path fill="#37474f" d="M46.271,42.308l0.716,1.867l-0.575,1.292l-1.867,0.716l-7.751-3.453l-0.537-1.4l0.863-1.938	l1.4-0.537L46.271,42.308z"/><path fill="#546e7a" d="M37.956,43.249l1.809,0.806l1.726-3.875l-1.809-0.806L37.956,43.249z M45.144,41.884l-1.809-0.806	l-1.726,3.875l1.809,0.806L45.144,41.884z"/></svg>